<?xml version="1.0" encoding="UTF-8" standalone="no"?>
<!-- Generator: Adobe Illustrator 19.0.0, SVG Export Plug-In . SVG Version: 6.00 Build 0)  -->

<svg
   xmlns:dc="http://purl.org/dc/elements/1.1/"
   xmlns:cc="http://creativecommons.org/ns#"
   xmlns:rdf="http://www.w3.org/1999/02/22-rdf-syntax-ns#"
   xmlns:svg="http://www.w3.org/2000/svg"
   xmlns="http://www.w3.org/2000/svg"
   xmlns:sodipodi="http://sodipodi.sourceforge.net/DTD/sodipodi-0.dtd"
   xmlns:inkscape="http://www.inkscape.org/namespaces/inkscape"
   version="1.1"
   id="Capa_1"
   x="0px"
   y="0px"
   viewBox="0 0 400 400"
   xml:space="preserve"
   sodipodi:docname="mpsoc-msi.svg"
   width="400"
   height="400"
   inkscape:version="0.92.4 5da689c313, 2019-01-14"><metadata
   id="metadata43"><rdf:RDF><cc:Work
       rdf:about=""><dc:format>image/svg+xml</dc:format><dc:type
         rdf:resource="http://purl.org/dc/dcmitype/StillImage" /><dc:title></dc:title></cc:Work></rdf:RDF></metadata><defs
   id="defs41" /><sodipodi:namedview
   pagecolor="#ffffff"
   bordercolor="#666666"
   borderopacity="1"
   objecttolerance="10"
   gridtolerance="10"
   guidetolerance="10"
   inkscape:pageopacity="0"
   inkscape:pageshadow="2"
   inkscape:window-width="1533"
   inkscape:window-height="845"
   id="namedview39"
   showgrid="false"
   fit-margin-top="0"
   fit-margin-left="0"
   fit-margin-right="0"
   fit-margin-bottom="0"
   inkscape:zoom="1.2189636"
   inkscape:cx="256"
   inkscape:cy="256"
   inkscape:window-x="67"
   inkscape:window-y="27"
   inkscape:window-maximized="1"
   inkscape:current-layer="Capa_1" />
<g
   id="g6"
   transform="scale(0.78125)">
	<g
   id="g4">
		<path
   d="m 497,361 h -46 v -75 c 0,-8.291 -6.709,-15 -15,-15 H 271 v -60 h 105 c 8.291,0 15,-6.709 15,-15 V 15 C 391,6.709 384.291,0 376,0 H 136 c -8.291,0 -15,6.709 -15,15 v 181 c 0,8.291 6.709,15 15,15 h 105 v 60 H 76 c -8.291,0 -15,6.709 -15,15 v 75 H 15 c -8.291,0 -15,6.709 -15,15 v 121 c 0,8.291 6.709,15 15,15 h 121 c 8.291,0 15,-6.709 15,-15 V 376 c 0,-8.291 -6.709,-15 -15,-15 H 91 v -60 h 150 v 60 h -45 c -8.291,0 -15,6.709 -15,15 v 121 c 0,8.291 6.709,15 15,15 h 120 c 8.291,0 15,-6.709 15,-15 V 376 c 0,-8.291 -6.709,-15 -15,-15 h -45 v -60 h 150 v 60 h -45 c -8.291,0 -15,6.709 -15,15 v 121 c 0,8.291 6.709,15 15,15 h 121 c 8.291,0 15,-6.709 15,-15 V 376 c 0,-8.291 -6.709,-15 -15,-15 z M 196,61 h 120 c 8.291,0 15,6.709 15,15 0,8.291 -6.709,15 -15,15 H 196 c -8.291,0 -15,-6.709 -15,-15 0,-8.291 6.709,-15 15,-15 z m 0,90 c -8.291,0 -15,-6.709 -15,-15 0,-8.291 6.709,-15 15,-15 h 120 c 8.291,0 15,6.709 15,15 0,8.291 -6.709,15 -15,15 z"
   id="path2"
   inkscape:connector-curvature="0" />
	</g>
</g>
<g
   id="g8"
   transform="translate(0,-112)">
</g>
<g
   id="g10"
   transform="translate(0,-112)">
</g>
<g
   id="g12"
   transform="translate(0,-112)">
</g>
<g
   id="g14"
   transform="translate(0,-112)">
</g>
<g
   id="g16"
   transform="translate(0,-112)">
</g>
<g
   id="g18"
   transform="translate(0,-112)">
</g>
<g
   id="g20"
   transform="translate(0,-112)">
</g>
<g
   id="g22"
   transform="translate(0,-112)">
</g>
<g
   id="g24"
   transform="translate(0,-112)">
</g>
<g
   id="g26"
   transform="translate(0,-112)">
</g>
<g
   id="g28"
   transform="translate(0,-112)">
</g>
<g
   id="g30"
   transform="translate(0,-112)">
</g>
<g
   id="g32"
   transform="translate(0,-112)">
</g>
<g
   id="g34"
   transform="translate(0,-112)">
</g>
<g
   id="g36"
   transform="translate(0,-112)">
</g>
</svg>